<svg width="456.2px" height="124.439990234375px" xmlns="http://www.w3.org/2000/svg" viewBox="21.900000000000006 12.780004882812499 456.2 124.439990234375" style="background: rgba(0, 0, 0, 0) none repeat scroll 0% 0%; --darkreader-inline-bgcolor:rgba(0, 0, 0, 0); --darkreader-inline-bgimage:none;" data-darkreader-inline-bgcolor="" data-darkreader-inline-bgimage="" preserveAspectRatio="xMidYMid"><defs><filter id="editing-extrusion" x="-100%" y="-100%" width="300%" height="300%"><feFlood result="color1" flood-color="#444"></feFlood><feConvolveMatrix order="8,8" divisor="1" kernelMatrix="1 0 0 0 0 0 0 0 0 1 0 0 0 0 0 0 0 0 1 0 0 0 0 0 0 0 0 1 0 0 0 0 0 0 0 0 1 0 0 0 0 0 0 0 0 1 0 0 0 0 0 0 0 0 1 0 0 0 0 0 0 0 0 1" in="SourceAlpha" result="extrude"></feConvolveMatrix><feComposite in="color1" in2="extrude" result="comp-extrude" operator="in"></feComposite><feOffset dx="4" dy="4" in="comp-extrude" result="offset-extrude"></feOffset><feMerge><feMergeNode in="offset-extrude"></feMergeNode><feMergeNode in="SourceGraphic"></feMergeNode></feMerge></filter></defs><g filter="url(#editing-extrusion)"><g transform="translate(90.22618496417999, 99)"><path d="M48.83-10.69L48.83-10.69Q44.61-4.86 40.54-1.79L40.54-1.79L40.54-1.79Q36.48 1.28 32.29 1.28L32.29 1.28L32.29 1.28Q28.10 1.28 26.62 0.45L26.62 0.45L26.62-13.63L26.62-13.63Q22.98-3.90 16.45-0.13L16.45-0.13L16.45-0.13Q14.08 1.28 11.84 1.28L11.84 1.28L11.84 1.28Q7.55 1.28 5.70 0.45L5.70 0.45L5.70 0.45Q5.25-14.21 4.86-18.27L4.86-18.27L4.86-18.27Q4.48-22.34 4.16-24.83L4.16-24.83L4.16-24.83Q3.52-29.82 1.34-31.87L1.34-31.87L1.34-31.87Q4.10-33.92 7.94-33.92L7.94-33.92L7.94-33.92Q15.36-33.92 16.38-24.70L16.38-24.70L16.38-24.70Q16.64-22.53 16.64-20.22L16.64-20.22L16.64-20.22Q16.64-16.77 15.87-4.74L15.87-4.74L15.87-4.74Q17.41-5.44 19.04-7.97L19.04-7.97L19.04-7.97Q20.67-10.50 22.02-13.95L22.02-13.95L22.02-13.95Q25.02-21.95 25.02-28.86L25.02-28.86L25.02-28.86Q25.02-29.95 24.74-31.10L24.74-31.10L24.74-31.10Q24.45-32.26 24.13-32.58L24.13-32.58L24.13-32.58Q26.37-33.92 29.79-33.92L29.79-33.92L29.79-33.92Q33.22-33.92 34.85-31.58L34.85-31.58L34.85-31.58Q36.48-29.25 36.93-24.96L36.93-24.96L36.93-24.96Q37.44-19.52 37.44-16.26L37.44-16.26L37.44-16.26Q37.44-11.71 36.99-4.99L36.99-4.99L36.99-4.99Q40.19-7.30 42.82-14.85L42.82-14.85L42.82-14.85Q45.44-22.40 45.44-27.78L45.44-27.78L45.44-27.78Q45.44-30.14 45.06-31.55L45.06-31.55L45.06-31.55Q47.17-33.92 50.82-33.92L50.82-33.92L50.82-33.92Q53.06-33.92 54.69-32.70L54.69-32.70L54.69-32.70Q56.32-31.49 56.32-29.22L56.32-29.22L56.32-29.22Q56.32-26.94 55.65-24.51L55.65-24.51L55.65-24.51Q54.98-22.08 53.89-19.58L53.89-19.58L53.89-19.58Q51.78-14.59 48.83-10.69L48.83-10.69ZM90.24-7.10L90.24-7.10L90.24-7.10Q90.24-4.29 93.12-3.46L93.12-3.46L93.12-3.46Q92.42-1.09 89.66 0.19L89.66 0.19L89.66 0.19Q87.36 1.28 84.83 1.28L84.83 1.28L84.83 1.28Q82.30 1.28 80.99 0.61L80.99 0.61L80.99 0.61Q79.68-0.06 78.98-1.15L78.98-1.15L78.98-1.15Q77.82-2.82 77.82-5.95L77.82-5.95L77.82-5.95Q77.82-7.81 78.85-12.93L78.85-12.93L79.74-17.79L79.74-17.79Q80.83-23.36 80.83-25.41L80.83-25.41L80.83-25.41Q80.83-28.99 78.85-28.99L78.85-28.99L78.85-28.99Q76.35-28.99 74.75-25.34L74.75-25.34L74.75-25.34Q74.11-23.94 73.66-21.82L73.66-21.82L69.31 0L56.45 1.28L65.47-44.80L78.34-46.08L77.82-43.52L77.82-43.52Q76.03-33.66 74.50-30.34L74.50-30.34L74.50-30.34Q78.08-33.92 84.67-33.92L84.67-33.92L84.67-33.92Q91.65-33.92 92.93-29.31L92.93-29.31L92.93-29.31Q93.38-27.84 93.38-26.56L93.38-26.56L93.38-26.56Q93.38-25.28 93.28-24.29L93.28-24.29L93.28-24.29Q93.18-23.30 92.86-21.50L92.86-21.50L92.03-16.90L90.56-9.66L90.56-9.66Q90.24-8.19 90.24-7.10ZM124.22-10.82L124.22-10.82L124.22-10.82Q125.82-9.73 125.82-7.33L125.82-7.33L125.82-7.33Q125.82-4.93 124.61-3.39L124.61-3.39L124.61-3.39Q123.39-1.86 121.41-0.83L121.41-0.83L121.41-0.83Q117.31 1.28 112.90 1.28L112.90 1.28L112.90 1.28Q108.48 1.28 105.89 0.32L105.89 0.32L105.89 0.32Q103.30-0.64 101.57-2.43L101.57-2.43L101.57-2.43Q98.18-5.82 98.18-12.03L98.18-12.03L98.18-12.03Q98.18-21.70 103.42-27.58L103.42-27.58L103.42-27.58Q109.06-33.92 118.85-33.92L118.85-33.92L118.85-33.92Q124.93-33.92 127.94-31.36L127.94-31.36L127.94-31.36Q130.18-29.44 130.18-26.30L130.18-26.30L130.18-26.30Q130.18-15.04 110.72-15.04L110.72-15.04L110.72-15.04Q110.46-13.38 110.46-11.97L110.46-11.97L110.46-11.97Q110.46-9.02 111.78-7.90L111.78-7.90L111.78-7.90Q113.09-6.78 115.52-6.78L115.52-6.78L115.52-6.78Q117.95-6.78 120.54-7.90L120.54-7.90L120.54-7.90Q123.14-9.02 124.22-10.82ZM111.17-17.79L111.17-17.79L111.17-17.79Q115.71-17.79 118.34-20.61L118.34-20.61L118.34-20.61Q120.96-23.30 120.96-27.58L120.96-27.58L120.96-27.58Q120.96-29.06 120.42-29.86L120.42-29.86L120.42-29.86Q119.87-30.66 118.78-30.66L118.78-30.66L118.78-30.66Q117.70-30.66 116.77-30.24L116.77-30.24L116.77-30.24Q115.84-29.82 114.88-28.42L114.88-28.42L114.88-28.42Q112.51-25.22 111.17-17.79ZM152.38-17.98L152.38-17.98L152.38-17.98Q154.69-22.08 154.69-26.24L154.69-26.24L154.69-26.24Q154.69-28.99 152.70-28.99L152.70-28.99L152.70-28.99Q151.17-28.99 149.57-26.37L149.57-26.37L149.57-26.37Q147.90-23.74 147.39-20.35L147.39-20.35L144.06 0L130.82 1.28L137.34-32.64L147.90-33.92L146.75-27.46L146.75-27.46Q149.89-33.92 156.93-33.92L156.93-33.92L156.93-33.92Q160.64-33.92 162.66-32L162.66-32L162.66-32Q164.67-30.08 164.67-26.14L164.67-26.14L164.67-26.14Q164.67-22.21 162.08-19.71L162.08-19.71L162.08-19.71Q159.49-17.22 155.07-17.22L155.07-17.22L155.07-17.22Q153.15-17.22 152.38-17.98ZM191.62-10.82L191.62-10.82L191.62-10.82Q193.22-9.73 193.22-7.33L193.22-7.33L193.22-7.33Q193.22-4.93 192-3.39L192-3.39L192-3.39Q190.78-1.86 188.80-0.83L188.80-0.83L188.80-0.83Q184.70 1.28 180.29 1.28L180.29 1.28L180.29 1.28Q175.87 1.28 173.28 0.32L173.28 0.32L173.28 0.32Q170.69-0.64 168.96-2.43L168.96-2.43L168.96-2.43Q165.57-5.82 165.57-12.03L165.57-12.03L165.57-12.03Q165.57-21.70 170.82-27.58L170.82-27.58L170.82-27.58Q176.45-33.92 186.24-33.92L186.24-33.92L186.24-33.92Q192.32-33.92 195.33-31.36L195.33-31.36L195.33-31.36Q197.57-29.44 197.57-26.30L197.57-26.30L197.57-26.30Q197.57-15.04 178.11-15.04L178.11-15.04L178.11-15.04Q177.86-13.38 177.86-11.97L177.86-11.97L177.86-11.97Q177.86-9.02 179.17-7.90L179.17-7.90L179.17-7.90Q180.48-6.78 182.91-6.78L182.91-6.78L182.91-6.78Q185.34-6.78 187.94-7.90L187.94-7.90L187.94-7.90Q190.53-9.02 191.62-10.82ZM178.56-17.79L178.56-17.79L178.56-17.79Q183.10-17.79 185.73-20.61L185.73-20.61L185.73-20.61Q188.35-23.30 188.35-27.58L188.35-27.58L188.35-27.58Q188.35-29.06 187.81-29.86L187.81-29.86L187.81-29.86Q187.26-30.66 186.18-30.66L186.18-30.66L186.18-30.66Q185.09-30.66 184.16-30.24L184.16-30.24L184.16-30.24Q183.23-29.82 182.27-28.42L182.27-28.42L182.27-28.42Q179.90-25.22 178.56-17.79ZM202.53-1.92L202.53-1.92L202.53-1.92Q201.02-3.58 200.35-6.21L200.35-6.21L200.35-6.21Q199.68-8.83 199.68-13.12L199.68-13.12L199.68-13.12Q199.68-17.41 201.15-21.31L201.15-21.31L201.15-21.31Q202.62-25.22 205.31-28.03L205.31-28.03L205.31-28.03Q210.82-33.92 219.90-33.92L219.90-33.92L219.90-33.92Q223.17-33.92 225.54-32.83L225.54-32.83L236.48-33.92L231.74-8.96L231.74-8.96Q231.55-8.19 231.55-6.78L231.55-6.78L231.55-6.78Q231.55-5.38 232.42-4.48L232.42-4.48L232.42-4.48Q233.28-3.58 234.56-3.46L234.56-3.46L234.56-3.46Q233.92-1.28 231.58 0L231.58 0L231.58 0Q229.25 1.28 226.62 1.28L226.62 1.28L226.62 1.28Q224 1.28 222.24 0.29L222.24 0.29L222.24 0.29Q220.48-0.70 219.97-2.37L219.97-2.37L219.97-2.37Q218.94-0.77 216.77 0.26L216.77 0.26L216.77 0.26Q214.59 1.28 211.68 1.28L211.68 1.28L211.68 1.28Q208.77 1.28 206.40 0.51L206.40 0.51L206.40 0.51Q204.03-0.26 202.53-1.92ZM216.03-27.90L216.03-27.90L216.03-27.90Q215.30-26.75 214.66-24.80L214.66-24.80L214.66-24.80Q214.02-22.85 212.96-17.63L212.96-17.63L212.96-17.63Q211.90-12.42 211.90-8.70L211.90-8.70L211.90-8.70Q211.90-4.99 212.48-3.90L212.48-3.90L212.48-3.90Q213.06-2.82 214.08-2.82L214.08-2.82L214.08-2.82Q216.13-2.82 217.63-4.77L217.63-4.77L217.63-4.77Q219.14-6.72 219.71-10.18L219.71-10.18L223.10-28.93L223.10-28.93Q221.76-30.08 220.19-30.08L220.19-30.08L220.19-30.08Q218.62-30.08 217.70-29.57L217.70-29.57L217.70-29.57Q216.77-29.06 216.03-27.90ZM286.02 1.28L286.02 1.28L286.02 1.28Q278.27 1.28 278.27-4.74L278.27-4.74L278.27-4.74Q278.27-7.36 279.39-12.45L279.39-12.45L279.39-12.45Q280.51-17.54 280.90-19.58L280.90-19.58L280.90-19.58Q281.79-24.26 281.79-25.73L281.79-25.73L281.79-25.73Q281.79-28.99 279.36-28.99L279.36-28.99L279.36-28.99Q277.76-28.99 276.22-26.78L276.22-26.78L276.22-26.78Q274.69-24.58 273.98-20.16L273.98-20.16L270.02 0L257.54 1.28L260.99-16.13L260.99-16.13Q261.57-19.01 262.08-22.27L262.08-22.27L262.08-22.27Q262.59-25.54 262.59-26.05L262.59-26.05L262.59-26.05Q262.59-28.99 260.42-28.99L260.42-28.99L260.42-28.99Q258.94-28.99 257.34-26.82L257.34-26.82L257.34-26.82Q255.74-24.64 254.85-20.16L254.85-20.16L250.94 0L238.34 1.28L245.06-32.64L255.49-33.92L254.40-27.46L254.40-27.46Q256.06-30.91 259.14-32.42L259.14-32.42L259.14-32.42Q262.21-33.92 267.01-33.92L267.01-33.92L267.01-33.92Q269.76-33.92 271.55-32.58L271.55-32.58L271.55-32.58Q273.34-31.23 273.92-29.06L273.92-29.06L273.92-29.06Q275.01-31.30 277.79-32.61L277.79-32.61L277.79-32.61Q280.58-33.92 284-33.92L284-33.92L284-33.92Q287.42-33.92 289.12-33.18L289.12-33.18L289.12-33.18Q290.82-32.45 291.84-31.23L291.84-31.23L291.84-31.23Q293.57-28.99 293.57-24.90L293.57-24.90L293.57-24.90Q293.57-20.86 291.84-12.48L291.84-12.48L291.84-12.48Q290.94-8.38 290.94-6.88L290.94-6.88L290.94-6.88Q290.94-5.38 291.81-4.48L291.81-4.48L291.81-4.48Q292.67-3.58 293.95-3.46L293.95-3.46L293.95-3.46Q293.31-1.28 291.10 0L291.10 0L291.10 0Q288.90 1.28 286.02 1.28ZM314.24-3.52L314.24-3.52L314.24-3.52Q312.26 1.28 305.92 1.28L305.92 1.28L305.92 1.28Q302.66 1.28 300.61-0.96L300.61-0.96L300.61-0.96Q298.88-2.94 298.88-4.93L298.88-4.93L298.88-4.93Q298.88-10.11 301.25-20.22L301.25-20.22L303.62-32.64L316.61-33.92L312.70-13.70L312.70-13.70Q311.62-8.96 311.62-7.30L311.62-7.30L311.62-7.30Q311.62-3.65 314.24-3.52ZM304.77-41.54L304.77-41.54L304.77-41.54Q304.77-44.03 306.85-45.38L306.85-45.38L306.85-45.38Q308.93-46.72 311.94-46.72L311.94-46.72L311.94-46.72Q314.94-46.72 316.77-45.38L316.77-45.38L316.77-45.38Q318.59-44.03 318.59-41.54L318.59-41.54L318.59-41.54Q318.59-39.04 316.58-37.76L316.58-37.76L316.58-37.76Q314.56-36.48 311.55-36.48L311.55-36.48L311.55-36.48Q308.54-36.48 306.66-37.76L306.66-37.76L306.66-37.76Q304.77-39.04 304.77-41.54Z" fill="#ccc" style="--darkreader-inline-fill:#1f2224;" data-darkreader-inline-fill=""></path></g></g><style>text {
  font-size: 64px;
  font-family: Arial Black;
  dominant-baseline: central;
  text-anchor: middle;
}</style><style class="darkreader darkreader--sync" media="screen"></style></svg>